# xmcd
#
# Track frame offsets:
#	150
#	3076
#	22046
#	36132
#	61636
#	87908
#	113924
#	136688
#	160542
#	189405
#	208696
#	233312
#	263272
#	290158
#	318740
#
# Disc length: 4286 seconds
#
# Revision: 3
# Processed by: cddbd v1.5.2PL0 Copyright (c) Steve Scherf et al.
# Submitted via: audiograbber 1.83.01
#
DISCID=b610bc0f
DTITLE=Techno Club -  Vol.26 (Talla 2XLC battles M.I.K.E. - CD2)
DYEAR=2008
DGENRE=Techno/Trance
TTITLE0=Intro - Comming
TTITLE1=Eddie Williams - Gestation Part 1
TTITLE2=Energy Reflect vs. Arctic Moon - Cold Planet (Luccio Betega Remix)
TTITLE3=MIKE vs. Andrew Bennett - A Better World
TTITLE4=Arnej - They Always Come Back
TTITLE5=Airwave - Punjabi Child
TTITLE6=Allan O'Marshall - Rainbow Isle
TTITLE7=Boom Jinx feat. Key - Eternal Reminiscence (Oliver Smith Remix)
TTITLE8=Reconceal - Receptance
TTITLE9=Gilbert Renoir pres. Dyor feat. Ken Spector - Follow Me (Miami Mix)
TTITLE10=Markus Schulz feat. Dauby - Perfect (Agnelli and Nelson Remix)
TTITLE11=Absolute - Dolphins Cry
TTITLE12=Shadowrider - Blue Horizon (Luke Terry Remix)
TTITLE13=Stoneface and Terminal - Storm
TTITLE14=Outro - Control Tower
EXTD=
EXTT0=
EXTT1=
EXTT2=
EXTT3=
EXTT4=
EXTT5=
EXTT6=
EXTT7=
EXTT8=
EXTT9=
EXTT10=
EXTT11=
EXTT12=
EXTT13=
EXTT14=
PLAYORDER=
